<svg width="564" height="346" viewBox="0 0 564 346" fill="none" xmlns="http://www.w3.org/2000/svg">
<path d="M271 346C231.719 346 212.078 346 197.65 337.158C189.577 332.211 182.789 325.423 177.842 317.35C169 302.922 169 283.281 169 244L169 213.5C169 210.227 169 208.59 169.737 207.388C170.149 206.715 170.715 206.149 171.388 205.737C172.59 205 174.227 205 177.5 205L300 205C331.718 205 347.577 205 359.831 210.845C372.238 216.763 382.237 226.762 388.155 239.169C394 251.423 394 267.282 394 299C394 314.859 394 322.788 391.078 328.915C388.119 335.119 383.119 340.119 376.915 343.078C370.788 346 362.859 346 347 346L271 346Z" fill="#FFCF3C"/>
<path d="M72.5 346C112.541 346 145 313.541 145 273.5L145 213.294C145 210.216 145 208.677 144.345 207.527C143.901 206.746 143.254 206.099 142.473 205.655C141.323 205 139.784 205 136.706 205L70.5 205C31.5639 205 1.30501e-06 236.564 8.40704e-07 275.5C3.76396e-07 314.436 31.5639 346 70.5 346L72.5 346Z" fill="#2DBC7C"/>
<path d="M394 48.6666C394 31.2356 394 22.5201 390.488 15.9158C387.682 10.6375 383.362 6.31806 378.084 3.51154C371.48 -3.05176e-05 362.764 -3.05176e-05 345.333 -3.05176e-05C310.471 -3.05176e-05 293.04 -3.05176e-05 279.832 7.02311C269.275 12.6362 260.636 21.2751 255.023 31.8317C248 45.0403 248 62.4713 248 97.3333V135.333C248 152.764 248 161.48 251.512 168.084C254.318 173.362 258.638 177.682 263.916 180.488C270.52 184 279.236 184 296.667 184C331.529 184 348.96 184 362.168 176.977C372.725 171.364 381.364 162.725 386.977 152.168C394 138.96 394 121.529 394 86.6666V48.6666Z" fill="#EF584E"/>
<path d="M418 48.6667C418 31.2357 418 22.5202 421.512 15.9159C424.318 10.6376 428.638 6.31809 433.916 3.51157C440.52 0 449.236 0 466.667 0C501.529 0 518.96 0 532.168 7.02314C542.725 12.6362 551.364 21.2751 556.977 31.8317C564 45.0403 564 62.4713 564 97.3333V297.333C564 314.764 564 323.48 560.488 330.084C557.682 335.362 553.362 339.682 548.084 342.488C541.48 346 532.764 346 515.333 346C480.471 346 463.04 346 449.832 338.977C439.275 333.364 430.636 324.725 425.023 314.168C418 300.96 418 283.529 418 248.667V48.6667Z" fill="#5B45FF"/>
</svg>
