<svg width="12" height="16" viewBox="0 0 12 16" fill="none" xmlns="http://www.w3.org/2000/svg">
<path d="M9.49999 0H8.66666H3.33332H2.49999C1.48866 0 0.666656 0.822 0.666656 1.83333V14.1667C0.666656 15.178 1.48866 16 2.49999 16H9.49999C10.5113 16 11.3333 15.178 11.3333 14.1667V1.83333C11.3333 0.822 10.5113 0 9.49999 0ZM9.99999 14C9.99999 14.368 9.70132 14.6667 9.33332 14.6667H2.66666C2.29866 14.6667 1.99999 14.368 1.99999 14V2C1.99999 1.632 2.29866 1.33333 2.66666 1.33333H2.99999C3.36799 1.33333 3.66666 1.632 3.66666 2C3.66666 2.368 3.96532 2.66667 4.33332 2.66667H7.66666C8.03466 2.66667 8.33332 2.368 8.33332 2C8.33332 1.632 8.63199 1.33333 8.99999 1.33333H9.33332C9.70132 1.33333 9.99999 1.632 9.99999 2V14Z" fill="#6D698C"/>
</svg>
