<svg width="183" height="50" viewBox="0 0 183 50" fill="none" xmlns="http://www.w3.org/2000/svg">
<path d="M183 25C183 15.6538 183 10.9808 180.99 7.5C179.674 5.21971 177.78 3.32614 175.5 2.00962C172.019 0 167.346 0 158 0H16.6667C15.1189 0 14.3451 0 13.6927 0.0570796C6.44096 0.691522 0.691528 6.44096 0.0570831 13.6927C0 14.3451 0 15.1189 0 16.6667C0 19.7621 0 21.3098 0.114166 22.6147C1.38304 37.1181 12.8819 48.617 27.3853 49.8858C28.6902 50 30.2379 50 33.3333 50H158C167.346 50 172.019 50 175.5 47.9904C177.78 46.6739 179.674 44.7803 180.99 42.5C183 39.0192 183 34.3462 183 25Z" fill="#EF584E"/>
</svg>
