<svg width="183" height="50" viewBox="0 0 183 50" fill="none" xmlns="http://www.w3.org/2000/svg">
<path d="M183 25C183 15.6538 183 10.9808 180.99 7.5C179.674 5.21971 177.78 3.32614 175.5 2.00962C172.019 0 167.346 0 158 0H16.6667C15.1189 0 14.3451 0 13.6927 0.0570796C6.44096 0.691522 0.691528 6.44096 0.0570831 13.6927C0 14.3451 0 15.1189 0 16.6667C0 19.7621 0 21.3098 0.114166 22.6147C1.38304 37.1181 12.8819 48.617 27.3853 49.8858C28.6902 50 30.2379 50 33.3333 50H158C167.346 50 172.019 50 175.5 47.9904C177.78 46.6739 179.674 44.7803 180.99 42.5C183 39.0192 183 34.3462 183 25Z" fill="currentColor"/>
<path d="M13.7859 11.136C12.8194 10.3093 11.8384 9.80855 10.8838 10.634L10.3137 11.1329C9.8966 11.495 9.1211 13.1871 6.12278 9.73799C3.12508 6.29323 4.90897 5.75688 5.32668 5.39785L5.89987 4.89834C6.84957 4.07102 6.49117 3.02954 5.80622 1.95746L5.39287 1.3081C4.70479 0.238516 3.95552 -0.463923 3.00333 0.362146L2.48883 0.811707C2.06799 1.11828 0.891641 2.11481 0.606295 4.00796C0.26288 6.27949 1.3462 8.8807 3.82815 11.7348C6.30698 14.5901 8.73398 16.0244 11.033 15.9994C12.9436 15.9788 14.0975 14.9535 14.4584 14.5808L14.9748 14.1306C15.9245 13.3051 15.3344 12.4647 14.3672 11.6361L13.7859 11.136Z" fill="white" transform="translate(22,15) scale(1)"/>
<text x="60%" y="50%" dominant-baseline="middle" text-anchor="middle" fill="white" font-size="14px" font-weight="bold">Заказать звонок</text>
</svg>
